<?xml version="1.0" encoding="UTF-8"?>
<!DOCTYPE svg PUBLIC "-//W3C//DTD SVG 1.1//EN" "http://www.w3.org/Graphics/SVG/1.1/DTD/svg11.dtd">
<!-- Creator: CorelDRAW 2021 (64 Bit Sem fins comerciais) -->
<svg xmlns="http://www.w3.org/2000/svg" xml:space="preserve" width="64.7932mm" height="55.8871mm" version="1.1" style="shape-rendering:geometricPrecision; text-rendering:geometricPrecision; image-rendering:optimizeQuality; fill-rule:evenodd; clip-rule:evenodd"
viewBox="0 0 944.35 814.55"
 xmlns:xlink="http://www.w3.org/1999/xlink"
 xmlns:xodm="http://www.corel.com/coreldraw/odm/2003">
 <defs>
  <style type="text/css">
   <![CDATA[
    .fil1 {fill:#FDFDFD}
    .fil0 {fill:#FEFEFE}
   ]]>
  </style>
 </defs>
 <g id="Camada_x0020_1">
  <metadata id="CorelCorpID_0Corel-Layer"/>
  <path class="fil0" d="M502.52 702.46c-22.64,16.71 -54.73,17.6 -73.28,-1.81 -29.62,-30.99 -27.83,-111.14 1.26,-157.13 15.41,-24.37 33.83,-29.72 73.22,-26.84l-1.2 185.77zm122.57 -265.21c-140.46,-40.61 -265.45,-31.16 -317.69,82.92 -41.57,90.79 -34.35,293.99 109.29,294.36l3.22 0.01c58,0.15 76.94,-28.01 102.04,-48.58 9.65,15.44 10.8,25.21 25.53,35.18 32.06,21.7 110.18,10.38 103.81,-59 -8.59,-7.05 -17.38,-7.51 -21.9,-19.73 -7.9,-21.38 -0.71,-238.52 -4.3,-285.16z"/>
  <path class="fil1" d="M283.88 322.59c0.33,-18.58 -33.13,-24.68 -46.06,-93.29 -19.14,-101.57 59.22,-178.07 123.51,-143.16 42.36,23 55.69,66.62 68.23,73.54 8.99,-5.16 9.8,-10.59 16.38,-19.19 6.04,-7.91 10.9,-13.31 16.2,-19.06 9.75,-10.58 24.16,-20.79 38.78,-28.95 82.47,-46.06 160.57,17.66 129.84,107.32 -38.2,111.45 -178.86,108.51 -258.44,150.45 -37.44,19.73 -53.39,35.01 -78.18,60.21 -9.72,9.88 -54.06,66.86 -41.61,86.57 26.16,-2.18 20.48,-95.14 209.54,-124.84 102.3,-16.07 183.2,-40.92 228.18,-106.4 44.05,-64.11 58.34,-187.72 -21.51,-242.29 -88.26,-60.31 -210.18,8.53 -231.67,60.12 -6.61,-4.96 -2.03,-0.41 -7.55,-7.62 -3.4,-4.44 -2.1,-3.59 -4.92,-8.25 -92.6,-153.23 -283.33,-17.73 -226.59,156.03 12.04,36.87 54.93,93.94 85.85,98.81z"/>
  <path class="fil0" d="M185.09 807.18c67.85,-2.66 68,-51.13 70.63,-114.89l-120.72 0.14c-4.29,-19 -1.65,-221.82 -1.65,-259.26 0,-98.46 24.83,-135.28 -133.35,-114.26 -0.19,158.67 7.06,327.08 2.09,487.63 49.59,4.2 132.03,2.64 183,0.65z"/>
  <path class="fil0" d="M927.72 528.93c13.04,-12.21 17.71,-45.88 16.43,-66.71 -3.94,-64.06 -77.27,-51.03 -105.65,-35.2 -20.37,11.37 -26.68,23.87 -40.35,40.77l-12.64 -45.94c-21.15,0.15 -73.56,-5.21 -88.07,2.35 -8.09,15.16 -2.75,334.41 -2.33,381.1 15.35,4.23 109.82,4.1 125.45,0.05l0.79 -264.01c27.6,-15.72 66.23,-27.45 106.38,-12.41z"/>
 </g>
</svg>
